<svg xmlns="http://www.w3.org/2000/svg" viewBox="0 0 800 560" width="800" height="560"><defs><linearGradient id="bg" x1="0" y1="0" x2="0" y2="1"><stop offset="0" stop-color="#F6EEE3"/><stop offset="1" stop-color="#EFE3D2"/></linearGradient><radialGradient id="vig" cx="0.5" cy="0.35" r="0.75"><stop offset="0" stop-color="#FFFFFF"/><stop offset="0.65" stop-color="#FFFFFF00"/><stop offset="1" stop-color="#00000012"/></radialGradient><filter id="soft" x="-30%" y="-30%" width="160%" height="160%"><feGaussianBlur stdDeviation="9"/></filter><linearGradient id="bunTop" x1="0" y1="0" x2="0" y2="1"><stop offset="0" stop-color="#F7D399"/><stop offset="0.55" stop-color="#E3AB62"/><stop offset="1" stop-color="#CE9048"/></linearGradient><linearGradient id="bunBot" x1="0" y1="0" x2="0" y2="1"><stop offset="0" stop-color="#E9B770"/><stop offset="1" stop-color="#C98B42"/></linearGradient><linearGradient id="bunPale" x1="0" y1="0" x2="0" y2="1"><stop offset="0" stop-color="#F6E8CE"/><stop offset="0.6" stop-color="#E8D3AE"/><stop offset="1" stop-color="#D3BA8E"/></linearGradient><linearGradient id="patty" x1="0" y1="0" x2="0" y2="1"><stop offset="0" stop-color="#7A4626"/><stop offset="0.5" stop-color="#6A3A1D"/><stop offset="1" stop-color="#4E2712"/></linearGradient><linearGradient id="veg" x1="0" y1="0" x2="0" y2="1"><stop offset="0" stop-color="#8CA858"/><stop offset="0.6" stop-color="#6E8B3C"/><stop offset="1" stop-color="#54692B"/></linearGradient><linearGradient id="cheese" x1="0" y1="0" x2="0" y2="1"><stop offset="0" stop-color="#FBCB63"/><stop offset="1" stop-color="#EDA82F"/></linearGradient><linearGradient id="cheeseSauce" x1="0" y1="0" x2="0" y2="1"><stop offset="0" stop-color="#F9C556"/><stop offset="1" stop-color="#E09B28"/></linearGradient><linearGradient id="lettuce" x1="0" y1="0" x2="0" y2="1"><stop offset="0" stop-color="#9FCB63"/><stop offset="1" stop-color="#6E9B39"/></linearGradient><linearGradient id="tomato" x1="0" y1="0" x2="0" y2="1"><stop offset="0" stop-color="#DE5B4C"/><stop offset="1" stop-color="#B93A2E"/></linearGradient><linearGradient id="fry" x1="0" y1="0" x2="0" y2="1"><stop offset="0" stop-color="#F7D97C"/><stop offset="0.6" stop-color="#EDBF4F"/><stop offset="1" stop-color="#D69C33"/></linearGradient><linearGradient id="sweetFry" x1="0" y1="0" x2="0" y2="1"><stop offset="0" stop-color="#F3B172"/><stop offset="0.6" stop-color="#E08E46"/><stop offset="1" stop-color="#C4712E"/></linearGradient><linearGradient id="carton" x1="0" y1="0" x2="0" y2="1"><stop offset="0" stop-color="#D94F42"/><stop offset="1" stop-color="#B3392E"/></linearGradient><linearGradient id="kraft" x1="0" y1="0" x2="0" y2="1"><stop offset="0" stop-color="#D6BE96"/><stop offset="1" stop-color="#B99C71"/></linearGradient><linearGradient id="cup" x1="0" y1="0" x2="0" y2="1"><stop offset="0" stop-color="#FFFFFF"/><stop offset="0.5" stop-color="#F2F2F0"/><stop offset="1" stop-color="#DEDEDA"/></linearGradient><linearGradient id="cola" x1="0" y1="0" x2="0" y2="1"><stop offset="0" stop-color="#5A3320"/><stop offset="1" stop-color="#3A1C0E"/></linearGradient><linearGradient id="chick" x1="0" y1="0" x2="0" y2="1"><stop offset="0" stop-color="#EFC066"/><stop offset="0.6" stop-color="#D89B3C"/><stop offset="1" stop-color="#B87C26"/></linearGradient><linearGradient id="chickDark" x1="0" y1="0" x2="0" y2="1"><stop offset="0" stop-color="#D79B41"/><stop offset="1" stop-color="#A96F1E"/></linearGradient><linearGradient id="shakePink" x1="0" y1="0" x2="0" y2="1"><stop offset="0" stop-color="#F6D6C8"/><stop offset="1" stop-color="#E2A793"/></linearGradient><linearGradient id="shakeChoc" x1="0" y1="0" x2="0" y2="1"><stop offset="0" stop-color="#A9714C"/><stop offset="1" stop-color="#7C4A2C"/></linearGradient><linearGradient id="tortilla" x1="0" y1="0" x2="0" y2="1"><stop offset="0" stop-color="#F0DCB4"/><stop offset="0.6" stop-color="#E2C892"/><stop offset="1" stop-color="#C9AA71"/></linearGradient><linearGradient id="cream" x1="0" y1="0" x2="0" y2="1"><stop offset="0" stop-color="#FFFCF6"/><stop offset="1" stop-color="#F0E4D2"/></linearGradient><linearGradient id="choc" x1="0" y1="0" x2="0" y2="1"><stop offset="0" stop-color="#6B4026"/><stop offset="1" stop-color="#3F2314"/></linearGradient><linearGradient id="bowl" x1="0" y1="0" x2="0" y2="1"><stop offset="0" stop-color="#FBF8F1"/><stop offset="1" stop-color="#DED6C6"/></linearGradient><linearGradient id="plate" x1="0" y1="0" x2="0" y2="1"><stop offset="0" stop-color="#FFFFFF"/><stop offset="1" stop-color="#E7E2D7"/></linearGradient><linearGradient id="juice" x1="0" y1="0" x2="0" y2="1"><stop offset="0" stop-color="#FBB04A"/><stop offset="1" stop-color="#E07C1B"/></linearGradient><linearGradient id="water" x1="0" y1="0" x2="0" y2="1"><stop offset="0" stop-color="#DCEBF3"/><stop offset="1" stop-color="#B4D2E2"/></linearGradient><linearGradient id="lemon" x1="0" y1="0" x2="0" y2="1"><stop offset="0" stop-color="#F7EFC0"/><stop offset="1" stop-color="#E3D584"/></linearGradient><linearGradient id="coffee" x1="0" y1="0" x2="0" y2="1"><stop offset="0" stop-color="#7A4E2C"/><stop offset="1" stop-color="#4A2C15"/></linearGradient><linearGradient id="tea" x1="0" y1="0" x2="0" y2="1"><stop offset="0" stop-color="#D4913F"/><stop offset="1" stop-color="#A96B22"/></linearGradient><linearGradient id="berry" x1="0" y1="0" x2="0" y2="1"><stop offset="0" stop-color="#D0455C"/><stop offset="1" stop-color="#97283C"/></linearGradient><linearGradient id="box" x1="0" y1="0" x2="0" y2="1"><stop offset="0" stop-color="#E0D2B6"/><stop offset="1" stop-color="#C0AB86"/></linearGradient><linearGradient id="kidbox" x1="0" y1="0" x2="0" y2="1"><stop offset="0" stop-color="#8EB85E"/><stop offset="1" stop-color="#5F8635"/></linearGradient><radialGradient id="gloss" cx="0.35" cy="0.25" r="0.6"><stop offset="0" stop-color="#FFFFFF"/><stop offset="1" stop-color="#FFFFFF00"/></radialGradient></defs><rect width="800" height="560" fill="url(#bg)"/><rect width="800" height="560" fill="url(#vig)"/><ellipse cx="400" cy="452" rx="250" ry="30" fill="#6B5A44" opacity="0.18" filter="url(#soft)"/><path d="M250.0 380 h300 v22.0 a150.0 28.0 0 0 1 -300 0z" fill="url(#bunBot)"/><path d="M250.0 380 h300 v5 h-300z" fill="#C4883F" opacity="0.3"/><path d="M240.0 374 q26 -18 48 -2 q24 -18 48 -2 q24 -18 48 -2 q24 -16 46 0 v14 h-320z" fill="url(#lettuce)"/><path d="M240.0 382 q26 -14 48 -2 q24 -14 48 -2 q24 -14 48 -2" stroke="#A7C56A" stroke-width="3" fill="none" opacity="0.7"/><ellipse cx="334.0" cy="356" rx="66.0" ry="10" fill="url(#tomato)"/><ellipse cx="334.0" cy="354" rx="45.0" ry="5" fill="#E8695A" opacity="0.7"/><ellipse cx="460.0" cy="356" rx="66.0" ry="10" fill="url(#tomato)"/><ellipse cx="460.0" cy="354" rx="45.0" ry="5" fill="#E8695A" opacity="0.7"/><path d="M250.0 346 v-27.0 q0 -32.4 48.0 -32.4 h204.00000000000003 q48.0 0 48.0 32.4 v27.0z" fill="url(#chick)"/><circle cx="292.0" cy="316.3" r="5" fill="#B87C26" opacity="0.45"/><circle cx="328.0" cy="321.3" r="4" fill="#B87C26" opacity="0.45"/><circle cx="364.0" cy="326.3" r="5" fill="#B87C26" opacity="0.45"/><circle cx="400.0" cy="316.3" r="4" fill="#B87C26" opacity="0.45"/><circle cx="436.0" cy="321.3" r="5" fill="#B87C26" opacity="0.45"/><circle cx="472.0" cy="326.3" r="4" fill="#B87C26" opacity="0.45"/><circle cx="508.0" cy="316.3" r="5" fill="#B87C26" opacity="0.45"/><path d="M298.0 303.88 q102.00000000000001 -10 204.00000000000003 0" stroke="#FFE2A8" stroke-width="6" fill="none" opacity="0.5"/><g transform="rotate(-20 328.0 292)"><ellipse cx="328.0" cy="292" rx="13" ry="9" fill="#6E9B39"/><ellipse cx="328.0" cy="292" rx="7" ry="4" fill="#A7C56A"/></g><g transform="rotate(5 394.0 292)"><ellipse cx="394.0" cy="292" rx="13" ry="9" fill="#6E9B39"/><ellipse cx="394.0" cy="292" rx="7" ry="4" fill="#A7C56A"/></g><g transform="rotate(30 460.0 292)"><ellipse cx="460.0" cy="292" rx="13" ry="9" fill="#6E9B39"/><ellipse cx="460.0" cy="292" rx="7" ry="4" fill="#A7C56A"/></g><path d="M244.0 288 h312 v10 q-20 18 -40 4 q-24 22 -48 2 q-26 20 -50 -2 q-22 16 -44 -4z" fill="#C0392B" opacity="0.92"/><path d="M243.0 282 a157.0 96 0 0 1 314 0z" fill="url(#bunTop)"/><path d="M299.52 232.07999999999998 a94.2 40.32 0 0 1 131.88 -7.68" stroke="#FFF0D6" stroke-width="7" fill="none" opacity="0.5" stroke-linecap="round"/><ellipse cx="318.36" cy="234.0" rx="6" ry="3.7199999999999998" fill="#FBEBCB"/><ellipse cx="318.36" cy="232.6" rx="3.5999999999999996" ry="1.7999999999999998" fill="#FFF8EC" opacity="0.8"/><ellipse cx="381.16" cy="212.88" rx="6.5" ry="4.03" fill="#FBEBCB"/><ellipse cx="381.16" cy="211.48" rx="3.9" ry="1.95" fill="#FFF8EC" opacity="0.8"/><ellipse cx="456.52" cy="226.32" rx="6" ry="3.7199999999999998" fill="#FBEBCB"/><ellipse cx="456.52" cy="224.92" rx="3.5999999999999996" ry="1.7999999999999998" fill="#FFF8EC" opacity="0.8"/><ellipse cx="293.24" cy="260.88" rx="5.5" ry="3.41" fill="#FBEBCB"/><ellipse cx="293.24" cy="259.48" rx="3.3" ry="1.65" fill="#FFF8EC" opacity="0.8"/><ellipse cx="494.2" cy="257.04" rx="5.5" ry="3.41" fill="#FBEBCB"/><ellipse cx="494.2" cy="255.64000000000001" rx="3.3" ry="1.65" fill="#FFF8EC" opacity="0.8"/><ellipse cx="412.56" cy="249.36" rx="5.5" ry="3.41" fill="#FBEBCB"/><ellipse cx="412.56" cy="247.96" rx="3.3" ry="1.65" fill="#FFF8EC" opacity="0.8"/><ellipse cx="349.76" cy="268.56" rx="5" ry="3.1" fill="#FBEBCB"/><ellipse cx="349.76" cy="267.16" rx="3.0" ry="1.5" fill="#FFF8EC" opacity="0.8"/><ellipse cx="462.8" cy="276.24" rx="5" ry="3.1" fill="#FBEBCB"/><ellipse cx="462.8" cy="274.84000000000003" rx="3.0" ry="1.5" fill="#FFF8EC" opacity="0.8"/></svg>